<svg width="31" height="31" viewBox="0 0 31 31" fill="none" xmlns="http://www.w3.org/2000/svg">
<g clip-path="url(#clip0)">
<path d="M26.9724 27.287H4.71104C4.41635 27.287 4.17659 27.0473 4.17659 26.7526V26.5261L4.71879 26.5908C4.82971 26.604 4.94027 26.6105 5.05022 26.6105C5.77582 26.6105 6.46914 26.3257 6.99075 25.8041L7.17021 25.6246L7.33321 25.7876C7.42166 25.876 7.53785 25.9207 7.65441 25.9207C7.76182 25.9207 7.86953 25.8828 7.95575 25.8062L11.6573 22.5218C11.8449 22.3553 11.8621 22.0684 11.6956 21.8807C11.5292 21.6932 11.2422 21.676 11.0545 21.8425L7.673 24.8429L4.6322 21.8021L9.62539 16.1748C9.79184 15.9872 9.7747 15.7002 9.58707 15.5338C9.39949 15.3673 9.1125 15.3845 8.946 15.572L3.66884 21.5193C3.50936 21.6991 3.51753 21.9719 3.68743 22.1418L3.85048 22.3049L1.88379 24.2715C1.55194 24.6035 1.44114 25.0852 1.5948 25.5288C1.74835 25.9723 2.13337 26.2824 2.59952 26.338L3.26838 26.4177V26.7525C3.26838 27.548 3.91551 28.1952 4.7111 28.1952H26.9723C27.267 28.1952 27.5067 28.435 27.5067 28.7297C27.5067 29.0244 27.267 29.2641 26.9723 29.2641H11.2568C11.073 28.7812 10.6064 28.4364 10.0596 28.4364H7.7422C7.19552 28.4364 6.72895 28.7811 6.54507 29.2641H3.09704C2.84619 29.2641 2.64293 29.4674 2.64293 29.7182C2.64293 29.969 2.84619 30.1723 3.09704 30.1723H6.54513C6.72901 30.6553 7.19552 31 7.74226 31H10.0597C10.6064 31 11.073 30.6553 11.2569 30.1723H26.9724C27.768 30.1723 28.4151 29.5251 28.4151 28.7296C28.4151 27.9341 27.7678 27.287 26.9724 27.287ZM2.70681 25.4362C2.53449 25.4156 2.47189 25.2862 2.45294 25.2316C2.43399 25.1769 2.40323 25.0365 2.52602 24.9137L4.49264 22.9471L6.52787 24.9824L6.34841 25.1618C5.94601 25.5642 5.39183 25.7563 4.8262 25.6889L2.70681 25.4362ZM10.0596 30.0919H7.7422C7.53628 30.0919 7.36869 29.9243 7.36869 29.7183C7.36869 29.5124 7.53628 29.3448 7.7422 29.3448H10.0596C10.2656 29.3448 10.4332 29.5124 10.4332 29.7183C10.4332 29.9243 10.2657 30.0919 10.0596 30.0919Z" fill="white"/>
<path d="M27.6524 1.82253C26.6469 0.817024 25.3157 0.181826 23.9041 0.0338488C22.5132 -0.112069 21.1004 0.217367 19.9249 0.961066C19.713 1.09518 19.6499 1.37569 19.784 1.58761C19.918 1.79952 20.1987 1.86261 20.4105 1.72862C21.4142 1.09372 22.6214 0.812604 23.8094 0.93715C25.0146 1.06351 26.1514 1.60601 27.0101 2.46475C29.0837 4.53842 29.0837 7.91265 27.0101 9.98632C26.3379 10.6584 25.5024 11.1359 24.5886 11.3728L18.104 4.88796C18.2797 4.20929 18.5814 3.58136 19.0056 3.02118C19.157 2.82125 19.1176 2.53644 18.9177 2.38507C18.7177 2.2337 18.4329 2.27306 18.2816 2.47305C17.8413 3.0546 17.5123 3.69797 17.2999 4.39002C17.1843 4.36187 17.0646 4.34722 16.9426 4.34722C16.5424 4.34722 16.166 4.50306 15.883 4.78612C15.2989 5.37028 15.2989 6.32099 15.883 6.90521L16.2821 7.30427L10.322 14.0213C10.1555 14.2089 10.1726 14.4959 10.3603 14.6623C10.4467 14.739 10.5543 14.7767 10.6615 14.7767C10.7868 14.7767 10.9116 14.7252 11.0013 14.624L16.9254 7.94758L21.5274 12.5495L12.6052 20.4664C12.4176 20.6328 12.4004 20.9198 12.5669 21.1075C12.6566 21.2086 12.7814 21.2602 12.9067 21.2602C13.0139 21.2602 13.1215 21.2225 13.208 21.1457L22.1707 13.193L22.5697 13.5921C22.8618 13.8842 23.2456 14.0302 23.6293 14.0302C24.013 14.0302 24.3967 13.8842 24.6888 13.5921C24.9719 13.3091 25.1278 12.9328 25.1278 12.5324C25.1278 12.4108 25.1132 12.2915 25.0852 12.1762C26.0506 11.8788 26.9318 11.349 27.6524 10.6285C30.0802 8.20067 30.0802 4.25034 27.6524 1.82253ZM24.0467 12.9499C23.8167 13.1799 23.4423 13.1799 23.2121 12.9499L16.5252 6.26298C16.2951 6.03291 16.2951 5.65848 16.5252 5.42828C16.6367 5.31682 16.7848 5.25542 16.9425 5.25542C17.1002 5.25542 17.2484 5.31682 17.3598 5.42828L24.0468 12.1152C24.1582 12.2267 24.2196 12.3749 24.2196 12.5325C24.2196 12.6901 24.1582 12.8383 24.0467 12.9499Z" fill="white"/>
<path d="M18.6454 10.8296C18.1215 10.3056 17.2689 10.3057 16.7449 10.8296L15.7207 11.8538C15.1969 12.3777 15.1968 13.2303 15.7207 13.7542C15.9827 14.0163 16.3268 14.1472 16.6711 14.1472C17.0152 14.1472 17.3593 14.0162 17.6213 13.7543L18.6455 12.7301C19.1693 12.2061 19.1693 11.3535 18.6454 10.8296ZM16.979 13.112C16.8093 13.2818 16.533 13.2819 16.3631 13.112C16.1932 12.9422 16.1932 12.6658 16.3631 12.496L16.554 12.305L17.17 12.921L16.979 13.112ZM18.0032 12.0879L17.8123 12.2788L17.1963 11.6628L17.3872 11.4719C17.5571 11.302 17.8334 11.3021 18.0032 11.4718C18.1731 11.6416 18.1731 11.9181 18.0032 12.0879Z" fill="white"/>
<path d="M15.3388 14.1362C15.1007 13.898 14.784 13.7668 14.4471 13.7668C14.1102 13.7669 13.7936 13.898 13.5554 14.1362C13.3171 14.3744 13.186 14.6911 13.186 15.0279C13.186 15.3648 13.3171 15.6814 13.5553 15.9197C13.7935 16.1579 14.1102 16.2891 14.4471 16.2891C14.7839 16.2891 15.1006 16.1579 15.3389 15.9197C15.5771 15.6816 15.7082 15.3649 15.7082 15.0279C15.7082 14.691 15.5771 14.3744 15.3388 14.1362ZM14.6966 15.2775C14.6298 15.3441 14.5413 15.3808 14.447 15.3808C14.3528 15.3808 14.2642 15.3441 14.1976 15.2775C14.1309 15.2108 14.0942 15.1222 14.0942 15.0279C14.0942 14.9337 14.1309 14.8451 14.1975 14.7785H14.1976C14.2643 14.7118 14.3528 14.6751 14.447 14.6751C14.5413 14.6751 14.6299 14.7118 14.6966 14.7785C14.7632 14.8451 14.7999 14.9337 14.7999 15.0279C14.7999 15.1222 14.7632 15.2108 14.6966 15.2775Z" fill="white"/>
</g>
<defs>
<clipPath id="clip0">
<rect width="31" height="31" fill="white"/>
</clipPath>
</defs>
</svg>
