<svg width="34" height="34" viewBox="0 0 34 34" fill="none" xmlns="http://www.w3.org/2000/svg">
<path d="M19.0705 6.26222C19.2194 6.26222 19.3684 6.2056 19.482 6.09198L22.115 3.45897C22.3422 3.23212 22.3422 2.86334 22.115 2.63649C21.8877 2.40925 21.5197 2.40925 21.2925 2.63649L18.6595 5.26951C18.4323 5.49636 18.4323 5.86513 18.6595 6.09198C18.7727 6.2056 18.9216 6.26222 19.0705 6.26222Z" fill="white"/>
<path d="M21.614 9.04686C21.7276 9.16048 21.8765 9.21709 22.0254 9.21709C22.1743 9.21709 22.3232 9.16048 22.4368 9.04686L25.4072 6.07648C25.6345 5.84963 25.6345 5.48124 25.4072 5.254C25.18 5.02676 24.812 5.02676 24.5847 5.254L21.6144 8.22438C21.3867 8.45123 21.3867 8.81962 21.614 9.04686Z" fill="white"/>
<path d="M26.4267 4.81581C26.5756 4.81581 26.7245 4.7592 26.8381 4.64558L28.1217 3.36203C28.3489 3.13518 28.3489 2.7664 28.1217 2.53955C27.8944 2.31232 27.5264 2.31232 27.2992 2.53955L26.0156 3.8231C25.7884 4.04995 25.7884 4.41873 26.0156 4.64558C26.1293 4.75881 26.2782 4.81581 26.4267 4.81581Z" fill="white"/>
<path d="M33.8294 2.7412C33.6021 2.51396 33.2341 2.51396 33.0069 2.7412L24.5688 11.1792C24.3416 11.4061 24.3416 11.7749 24.5688 12.0017C24.6825 12.1153 24.8314 12.172 24.9803 12.172C25.1292 12.172 25.2781 12.1153 25.3917 12.0017L33.8298 3.56368C34.0566 3.33644 34.0566 2.96805 33.8294 2.7412Z" fill="white"/>
<path d="M24.2105 18.3935C24.0814 16.9874 23.7142 15.6337 23.1189 14.3703C23.1186 14.3695 23.1186 14.3691 23.1182 14.3683C22.5295 13.1119 21.728 11.9711 20.7384 10.9819C20.5375 10.7763 20.3432 10.596 20.1586 10.4417C19.5937 9.94069 18.9744 9.48854 18.3171 9.09766C18.3163 9.09727 18.3159 9.09688 18.3155 9.09649C17.9444 8.8774 17.5857 8.68933 17.2197 8.52219C16.1568 8.0332 15.028 7.70398 13.8635 7.54344C13.5959 7.50699 13.3283 7.47868 13.0557 7.45813C12.8285 7.44184 12.5877 7.49187 12.386 7.48954C11.6174 7.47325 10.8438 7.33249 10.0888 7.72027C10.0869 7.72027 10.0853 7.72027 10.0834 7.72027C8.54779 7.72027 7.10099 8.38957 5.78681 9.21127C5.15163 9.60215 4.54282 10.0469 3.97783 10.4347H3.97744C3.97705 10.4347 3.97666 10.5255 3.97628 10.5258C3.97511 10.527 3.97356 10.5732 3.97201 10.5747C3.97162 10.5751 3.97162 10.598 3.97123 10.598C3.84908 10.7077 3.72732 10.8326 3.60983 10.9505C3.55515 11.0051 3.49737 11.0699 3.4458 11.1327C2.53374 12.0766 1.73065 13.1492 1.17923 14.3137C0.637118 15.4425 0.43431 16.6465 0.0465322 17.8866C0.0465322 17.8866 0.0465322 17.887 0.0465322 17.8874C0.0465322 18.568 -0.0190023 19.2687 0.00620324 19.9841L0.0601044 20.3975C0.143089 21.6031 0.416472 22.768 0.84109 23.8615C0.841477 23.8623 0.848845 23.8631 0.849233 23.8642C0.850008 23.8666 0.85505 23.8689 0.855825 23.8712C0.856601 23.8732 0.858927 23.8755 0.859703 23.8774C0.860091 23.8778 0.861254 23.8786 0.861642 23.879C0.957423 24.1411 1.07182 24.4106 1.21103 24.7022C1.69304 25.7198 2.31581 26.6644 3.07353 27.5241C3.09951 27.5547 3.12588 27.5842 3.15419 27.6125C3.28642 27.7699 3.43455 27.9309 3.59393 28.0903C4.35126 28.8476 5.20476 29.5014 6.14318 30.04C6.18622 30.0648 6.22927 30.0885 6.27231 30.111C6.27386 30.1117 6.27541 30.1133 6.27696 30.1141C7.7924 30.9614 9.51918 31.4744 11.2669 31.5977C11.5511 31.6194 11.8396 31.6303 12.1285 31.6303C12.2732 31.6303 12.4182 31.6272 12.5625 31.6221C12.564 31.6221 12.5656 31.6217 12.5671 31.6214C13.9201 31.5795 15.2412 31.3154 16.4941 30.8357C16.6865 30.7624 16.878 30.6841 17.0704 30.5988C17.089 30.5903 17.1072 30.581 17.1247 30.5709C18.2981 30.0474 19.3773 29.337 20.3328 28.4586C20.3483 28.4458 20.3638 28.4303 20.3789 28.416C20.4852 28.3272 20.5902 28.2264 20.6798 28.1329L20.6469 28.0988C22.1441 26.6054 23.3124 24.7461 23.7002 22.7215C23.7002 22.7211 23.7002 22.7211 23.7002 22.7207C23.7002 22.7203 23.7002 22.8432 23.7002 22.8432H23.7677H23.8014C23.9139 22.4554 24.0198 21.9568 24.083 21.5581C24.0841 21.5512 24.0934 21.5135 24.0942 21.5066C24.2482 20.5856 24.2951 19.6204 24.2264 18.6828C24.2229 18.5932 24.2187 18.4838 24.2105 18.3935ZM19.912 11.8001C20.736 12.6241 21.4061 13.5645 21.9226 14.5894L19.6487 18.2453L16.4174 18.5602L13.3675 15.2785L13.7766 12.3635L18.2694 10.5351C18.2919 10.5262 18.3089 10.5099 18.3299 10.4987C18.6994 10.7531 19.0601 11.0222 19.3994 11.3231C19.5677 11.4639 19.734 11.6182 19.912 11.8001ZM6.06756 24.2136L1.84931 23.1763C1.52474 22.2689 1.31922 21.3111 1.25136 20.3246L1.22848 19.9306C1.21025 19.4052 1.23701 18.8836 1.29052 18.3706L5.11596 16.8125L7.60355 18.003L8.13015 22.3783L6.06756 24.2136ZM6.39989 10.23C7.4973 9.54399 8.69515 9.06935 9.96279 8.81031L12.654 11.9959L12.222 15.0733L8.13481 16.9672L5.62744 15.7674L5.28386 11.0862C5.2827 11.0683 5.27456 11.0528 5.27184 11.0354C5.63325 10.7411 6.00978 10.47 6.39989 10.23ZM7.11728 29.2416L6.81287 25.1082L8.88051 23.269L13.3268 24.1473L14.2757 26.6404L11.9032 30.4642C11.719 30.4604 11.5348 30.4522 11.3522 30.4383C9.85189 30.332 8.42952 29.9272 7.11728 29.2416ZM20.0252 27.1344L15.2622 25.9633L14.3866 23.6622L16.5899 19.7127L19.8345 19.3967L22.6257 22.7025C22.1305 24.3583 21.2382 25.8807 20.0252 27.1344Z" fill="white"/>
</svg>
