<svg width="29" height="29" viewBox="0 0 29 29" fill="none" xmlns="http://www.w3.org/2000/svg">
<path d="M29 14.6304C29 10.7571 27.4917 7.11345 24.7543 4.37608C22.0169 1.6387 18.3733 0.130356 14.5 0.130356C10.6267 0.130356 6.98309 1.6387 4.24572 4.37608C1.50835 7.11345 0 10.7571 0 14.6304V21.4955C0 25.375 3.15946 28.5345 7.03896 28.5345C7.50449 28.5345 7.87693 28.162 7.87693 27.6965V15.3007C7.87693 14.8352 7.50449 14.4628 7.03896 14.4628C4.89127 14.4628 2.96704 15.4249 1.67594 16.9456V14.6304C1.67594 7.56037 7.43001 1.8063 14.5 1.8063C21.57 1.8063 27.3241 7.56037 27.3241 14.6304C27.3241 14.6862 27.3303 14.7421 27.3427 14.798C27.3303 14.8538 27.3241 14.9097 27.3241 14.9655V17.2808C26.033 15.7601 24.1087 14.798 21.961 14.798C21.4955 14.798 21.1231 15.1704 21.1231 15.6359V28.0317C21.1231 28.4972 21.4955 28.8697 21.961 28.8697C25.8405 28.8697 29 25.7102 29 21.8307V14.9655C29 14.9097 28.9938 14.8538 28.9814 14.798C28.9938 14.7421 29 14.6862 29 14.6304ZM6.19478 16.2008V26.7903C3.63741 26.3868 1.66973 24.1646 1.66973 21.4955C1.67594 18.8264 3.63741 16.6042 6.19478 16.2008ZM22.8052 27.1254V16.536C25.3626 16.9394 27.3303 19.1616 27.3303 21.8307C27.3241 24.506 25.3626 26.722 22.8052 27.1254Z" fill="white"/>
</svg>
