<svg width="29" height="29" viewBox="0 0 29 29" fill="none" xmlns="http://www.w3.org/2000/svg">
<path d="M18.2685 14.078L12.7685 10.578C12.6145 10.4805 12.4195 10.474 12.259 10.5615C12.0995 10.6495 12 10.8175 12 11V18C12 18.1825 12.0995 18.3505 12.2595 18.4385C12.3345 18.4795 12.417 18.5 12.5 18.5C12.5935 18.5 12.687 18.4735 12.7685 18.422L18.2685 14.922C18.4125 14.83 18.5 14.671 18.5 14.5C18.5 14.329 18.4125 14.17 18.2685 14.078ZM13 17.0895V11.9105L17.0685 14.5L13 17.0895Z" fill="white"/>
<path d="M28.5 3H23.5H5.5H0.5C0.224 3 0 3.2235 0 3.5V9V14.5V20V25.5C0 25.7765 0.224 26 0.5 26H5.5H23.5H28.5C28.776 26 29 25.7765 29 25.5V20V14.5V9V3.5C29 3.2235 28.776 3 28.5 3ZM5 14H1V9.5H5V14ZM1 15H5V19.5H1V15ZM6 20V14.5V9V4H23V9V14.5V20V25H6V20ZM28 14H24V9.5H28V14ZM24 15H28V19.5H24V15ZM28 4V8.5H24V4H28ZM1 4H5V8.5H1V4ZM1 25V20.5H5V25H1ZM28 25H24V20.5H28V25Z" fill="white"/>
</svg>
