<svg width="27" height="27" viewBox="0 0 27 27" fill="none" xmlns="http://www.w3.org/2000/svg">
<path d="M22.05 0H4.95C3.708 0.0014625 2.70146 1.008 2.7 2.25V14.4C2.70146 15.642 3.708 16.6485 4.95 16.65H11.1033L10.4607 18.9H9V19.8H18V18.9H16.5393L15.8967 16.65H22.05C23.292 16.6485 24.2985 15.642 24.3 14.4V2.25C24.2985 1.008 23.292 0.0014625 22.05 0ZM11.3967 18.9L12.0393 16.65H14.9607L15.6033 18.9H11.3967ZM23.4 14.4C23.4 15.1456 22.7956 15.75 22.05 15.75H4.95C4.2044 15.75 3.6 15.1456 3.6 14.4V13.5H23.4V14.4ZM23.4 12.6H3.6V2.25C3.6 1.50441 4.2044 0.9 4.95 0.9H22.05C22.7956 0.9 23.4 1.50441 23.4 2.25V12.6Z" fill="white"/>
<path d="M17.1 20.7H4.5C4.25149 20.7 4.05 20.9015 4.05 21.15V26.55C4.05 26.7985 4.25149 27 4.5 27H17.1C17.3485 27 17.55 26.7985 17.55 26.55V21.15C17.55 20.9015 17.3485 20.7 17.1 20.7ZM16.65 26.1H4.95V21.6H16.65V26.1Z" fill="white"/>
<path d="M6.75 24.3H5.85001V25.2H6.75V24.3Z" fill="white"/>
<path d="M6.75 22.5H5.85001V23.4H6.75V22.5Z" fill="white"/>
<path d="M8.54999 22.5H7.64999V23.4H8.54999V22.5Z" fill="white"/>
<path d="M10.35 22.5H9.45V23.4H10.35V22.5Z" fill="white"/>
<path d="M13.95 22.5H13.05V23.4H13.95V22.5Z" fill="white"/>
<path d="M12.15 22.5H11.25V23.4H12.15V22.5Z" fill="white"/>
<path d="M15.75 24.3H14.85V25.2H15.75V24.3Z" fill="white"/>
<path d="M15.75 22.5H14.85V23.4H15.75V22.5Z" fill="white"/>
<path d="M13.95 24.3H7.64999V25.2H13.95V24.3Z" fill="white"/>
<path d="M20.7 20.7C19.4574 20.7 18.45 21.7074 18.45 22.95V24.75C18.45 25.9926 19.4574 27 20.7 27C21.9426 27 22.95 25.9926 22.95 24.75V22.95C22.95 21.7074 21.9426 20.7 20.7 20.7ZM22.05 24.75C22.05 25.4956 21.4456 26.1 20.7 26.1C19.9544 26.1 19.35 25.4956 19.35 24.75V22.95C19.35 22.2044 19.9544 21.6 20.7 21.6C21.4456 21.6 22.05 22.2044 22.05 22.95V24.75Z" fill="white"/>
<path d="M21.15 22.5H20.25V23.4H21.15V22.5Z" fill="white"/>
<path d="M13.9654 3.93573L12.1637 10.2321L13.0286 10.4796L14.8302 4.18321L13.9654 3.93573Z" fill="white"/>
<path d="M11.088 5.2956L10.512 4.6044L7.81199 6.8544C7.62113 7.01359 7.59543 7.29731 7.75462 7.48822C7.772 7.50904 7.79118 7.52828 7.81199 7.5456L10.512 9.7956L11.088 9.1044L8.80289 7.2L11.088 5.2956Z" fill="white"/>
<path d="M19.2454 6.91178C19.228 6.89096 19.2088 6.87173 19.188 6.8544L16.488 4.6044L15.912 5.2956L18.1971 7.2L15.912 9.1044L16.488 9.7956L19.188 7.5456C19.3789 7.38641 19.4046 7.10269 19.2454 6.91178Z" fill="white"/>
</svg>
