<svg width="32" height="32" viewBox="0 0 32 32" fill="none" xmlns="http://www.w3.org/2000/svg">
<g clip-path="url(#clip0)">
<path d="M9.59333 3.84629C5.07056 8.369 4.61595 15.2268 7.81754 20.2055L0.822333 27.2006C-0.274111 28.2971 -0.274111 30.0813 0.822333 31.1779C1.91878 32.2742 3.70306 32.2744 4.79963 31.1779L11.7948 24.1827C16.7725 27.3837 23.6296 26.9304 28.153 22.4069C33.2808 17.2792 33.2836 8.97691 28.1539 3.84723C23.0252 -1.28151 14.724 -1.28233 9.59333 3.84629ZM3.47395 29.8521C3.1084 30.2177 2.51368 30.2176 2.1482 29.8521C1.78266 29.4866 1.78266 28.8918 2.1482 28.5263L8.95392 21.7205C9.1581 21.9555 9.37102 22.1846 9.59333 22.4069C9.81563 22.6292 10.0447 22.8421 10.2797 23.0463L3.47395 29.8521ZM26.8273 21.0812C22.431 25.4775 15.3159 25.478 10.9191 21.0812C6.52298 16.6851 6.52211 9.569 10.9189 5.17222C15.3158 0.77707 22.4313 0.776133 26.8282 5.17297C31.2232 9.56806 31.2241 16.6843 26.8273 21.0812Z" fill="#5F5F5F"/>
<path d="M12.2443 6.49842C8.58176 10.1632 8.58051 16.0893 12.2447 19.7556C15.9094 23.4182 21.8356 23.4194 25.5019 19.7552C29.1645 16.0905 29.1657 10.1644 25.5015 6.49805C21.8368 2.83542 15.9107 2.83424 12.2443 6.49842ZM24.1762 18.4295C21.2446 21.3594 16.5033 21.361 13.5705 18.4299C10.6404 15.4981 10.639 10.757 13.5701 7.82417C16.5019 4.89407 21.2431 4.89269 24.1758 7.82379C27.1058 10.7554 27.1073 15.4967 24.1762 18.4295Z" fill="#5F5F5F"/>
<path d="M21.6752 10.874L17.9828 14.5663L15.8333 12.4168C15.4673 12.0507 14.8737 12.0507 14.5076 12.4168C14.1415 12.7829 14.1415 13.3764 14.5076 13.7426L17.3199 16.5549C17.503 16.738 17.7429 16.8295 17.9828 16.8295C18.2226 16.8295 18.4626 16.738 18.6456 16.5549L23.0008 12.1998C23.3669 11.8336 23.3669 11.2401 23.0008 10.874C22.6348 10.5079 22.0412 10.5079 21.6752 10.874Z" fill="#5F5F5F"/>
</g>
<defs>
<clipPath id="clip0">
<rect width="32" height="32" fill="white"/>
</clipPath>
</defs>
</svg>
