<svg width="37" height="37" viewBox="0 0 37 37" fill="none" xmlns="http://www.w3.org/2000/svg">
<g clip-path="url(#clip0)">
<path d="M35.1061 14.617L32.5091 14.1764C32.2386 13.303 31.8908 12.4605 31.4656 11.6567L32.996 9.51568C33.6453 8.60363 33.5448 7.35922 32.7487 6.57084L30.4454 4.26754C30.0126 3.8347 29.4406 3.59509 28.83 3.59509C28.3508 3.59509 27.8947 3.74195 27.5083 4.0202L25.3596 5.55059C24.5248 5.11002 23.6514 4.74675 22.7471 4.47623L22.3143 1.91012C22.1288 0.804846 21.1781 0.00100708 20.0573 0.00100708H16.8033C15.6826 0.00100708 14.7319 0.804846 14.5464 1.91012L14.0981 4.53806C13.2324 4.80858 12.3899 5.16413 11.5861 5.59696L9.46056 4.06658C9.0741 3.78833 8.61035 3.64147 8.13114 3.64147C7.52053 3.64147 6.94084 3.88108 6.51573 4.31391L4.20469 6.61722C3.41631 7.4056 3.30811 8.65 3.95736 9.56205L5.5032 11.734C5.0781 12.5455 4.73801 13.388 4.47522 14.2614L1.90912 14.6943C0.803839 14.8798 0 15.8304 0 16.9512V20.2052C0 21.3259 0.803839 22.2766 1.90912 22.4621L4.53705 22.9104C4.80757 23.7761 5.16312 24.6186 5.59595 25.4224L4.0733 27.5402C3.42404 28.4523 3.52452 29.6967 4.32063 30.4851L6.62394 32.7884C7.05678 33.2212 7.62874 33.4608 8.23935 33.4608C8.71856 33.4608 9.17458 33.3139 9.56104 33.0357L11.733 31.4899C12.5136 31.8995 13.3329 32.2319 14.1754 32.4946L14.6082 35.0917C14.7937 36.1969 15.7444 37.0008 16.8652 37.0008H20.1269C21.2476 37.0008 22.1983 36.1969 22.3838 35.0917L22.8244 32.4946C23.6978 32.2241 24.5403 31.8763 25.3441 31.4512L27.4851 32.9816C27.8716 33.2598 28.3353 33.4067 28.8145 33.4067C29.4251 33.4067 29.9971 33.1671 30.4299 32.7343L32.7332 30.4309C33.5216 29.6426 33.6298 28.3982 32.9806 27.4861L31.4502 25.3374C31.8753 24.5258 32.2308 23.6833 32.4936 22.8177L35.0907 22.3848C36.1959 22.1993 36.9998 21.2486 36.9998 20.1279V16.8739C37.0152 15.7532 36.2114 14.8025 35.1061 14.617ZM34.9283 20.1279C34.9283 20.2284 34.8588 20.3134 34.7583 20.3289L31.512 20.8699C31.1024 20.9395 30.7777 21.2409 30.6773 21.6351C30.3836 22.7713 29.9353 23.8611 29.3324 24.8736C29.1237 25.2292 29.1392 25.6697 29.3788 26.0098L31.2879 28.6996C31.342 28.7769 31.3343 28.8928 31.2647 28.9624L28.9614 31.2657C28.9073 31.3198 28.8532 31.3275 28.8145 31.3275C28.7681 31.3275 28.7295 31.3121 28.6986 31.2889L26.0165 29.3798C25.6842 29.1402 25.2359 29.1247 24.8804 29.3334C23.8678 29.9363 22.778 30.3846 21.6418 30.6783C21.2399 30.7788 20.9385 31.1111 20.8766 31.513L20.3278 34.7593C20.3124 34.8598 20.2274 34.9294 20.1269 34.9294H16.8729C16.7724 34.9294 16.6874 34.8598 16.6719 34.7593L16.1309 31.513C16.0613 31.1034 15.7599 30.7788 15.3657 30.6783C14.2604 30.3923 13.1938 29.9517 12.1967 29.3798C12.0344 29.287 11.8489 29.2406 11.6711 29.2406C11.4624 29.2406 11.246 29.3025 11.0682 29.4339L8.36301 31.3585C8.32437 31.3816 8.28572 31.3971 8.24708 31.3971C8.21616 31.3971 8.15433 31.3894 8.10022 31.3353L5.79691 29.032C5.72735 28.9624 5.71962 28.8542 5.77373 28.7692L7.67511 26.1026C7.91472 25.7625 7.93018 25.3142 7.72149 24.9587C7.11861 23.9539 6.65486 22.864 6.36115 21.7278C6.25294 21.3337 5.92831 21.0322 5.52639 20.9627L2.25693 20.4061C2.15645 20.3907 2.08689 20.3057 2.08689 20.2052V16.9512C2.08689 16.8507 2.15645 16.7657 2.25693 16.7502L5.48002 16.2092C5.88966 16.1396 6.22202 15.8382 6.3225 15.4363C6.60848 14.3001 7.04905 13.2025 7.6442 12.19C7.85289 11.8344 7.8297 11.3939 7.59009 11.0615L5.66552 8.35629C5.61141 8.279 5.61914 8.16306 5.6887 8.0935L7.99201 5.79019C8.04612 5.73609 8.10022 5.72836 8.13887 5.72836C8.18524 5.72836 8.22389 5.74382 8.25481 5.76701L10.9214 7.66839C11.2615 7.908 11.7098 7.92346 12.0653 7.71477C13.0701 7.11189 14.1599 6.64814 15.2961 6.35443C15.6903 6.24622 15.9918 5.92159 16.0613 5.51967L16.6178 2.25021C16.6333 2.14973 16.7183 2.08017 16.8188 2.08017H20.0728C20.1733 2.08017 20.2583 2.14973 20.2737 2.25021L20.8148 5.4733C20.8843 5.88294 21.1858 6.2153 21.5877 6.31578C22.7548 6.60949 23.8678 7.06551 24.9035 7.67612C25.2591 7.88481 25.6996 7.86935 26.0397 7.62975L28.7063 5.7129C28.745 5.68971 28.7836 5.67425 28.8223 5.67425C28.8532 5.67425 28.915 5.68198 28.9691 5.73609L31.2724 8.0394C31.342 8.10896 31.3497 8.21717 31.2956 8.30219L29.3865 10.9842C29.1469 11.3166 29.1314 11.7649 29.3401 12.1204C29.943 13.133 30.3913 14.2228 30.685 15.359C30.7855 15.7609 31.1178 16.0623 31.5198 16.1242L34.766 16.6729C34.8665 16.6884 34.9361 16.7734 34.9361 16.8739V20.1279H34.9283V20.1279Z" fill="white"/>
<path d="M18.5038 10.5118C14.0981 10.5118 10.5195 14.0904 10.5195 18.4961C10.5195 22.9017 14.0981 26.4804 18.5038 26.4804C22.9094 26.4804 26.488 22.9017 26.488 18.4961C26.488 14.0904 22.9094 10.5118 18.5038 10.5118ZM18.5038 24.3935C15.2498 24.3935 12.6064 21.7501 12.6064 18.4961C12.6064 15.2421 15.2498 12.5987 18.5038 12.5987C21.7578 12.5987 24.4012 15.2421 24.4012 18.4961C24.4012 21.7501 21.7578 24.3935 18.5038 24.3935Z" fill="white"/>
</g>
<defs>
<clipPath id="clip0">
<rect width="37" height="37" fill="white"/>
</clipPath>
</defs>
</svg>
