<svg width="51" height="51" viewBox="0 0 51 51" fill="none" xmlns="http://www.w3.org/2000/svg">
<g clip-path="url(#clip0)">
<path d="M47.519 12.7845C47.2622 12.3428 46.6957 12.1929 46.2539 12.4497L41.7351 15.0618C41.2933 15.3187 41.1434 15.8852 41.4003 16.327C41.6571 16.7688 42.2236 16.9187 42.6654 16.6618L47.1842 14.0497C47.626 13.7927 47.7759 13.2263 47.519 12.7845Z" fill="white"/>
<path d="M47.1842 36.9555L42.6654 34.3434C42.2236 34.0866 41.6571 34.2365 41.4003 34.6783C41.1434 35.12 41.2933 35.6866 41.7351 35.9434L46.2539 38.5555C46.6957 38.8124 47.2622 38.6625 47.519 38.2207C47.7759 37.7788 47.626 37.2124 47.1842 36.9555Z" fill="white"/>
<path d="M25.5715 43.7849C25.0591 43.7468 24.6129 44.1313 24.5749 44.6438C24.5714 44.6896 24.5714 44.7356 24.5749 44.7815V50.0006C24.5368 50.5131 24.9213 50.9592 25.4338 50.9973C25.9462 51.0354 26.3924 50.6509 26.4304 50.1384C26.4339 50.0925 26.4339 50.0465 26.4304 50.0006V44.7815C26.4684 44.2692 26.0839 43.8229 25.5715 43.7849Z" fill="white"/>
<path d="M9.26509 15.0618L4.74629 12.4497C4.30451 12.1929 3.73799 12.3428 3.48113 12.7845C3.22426 13.2263 3.37416 13.7928 3.81595 14.0497L8.33475 16.6618C8.77654 16.9187 9.34305 16.7688 9.59992 16.327C9.85678 15.8851 9.70688 15.3187 9.26509 15.0618Z" fill="white"/>
<path d="M25.5715 0.00257087C25.0591 -0.0355118 24.6129 0.349021 24.5749 0.861476C24.5714 0.907354 24.5714 0.95336 24.5749 0.999238V6.21835C24.5777 6.72813 24.9903 7.14077 25.5001 7.14358C26.0139 7.14358 26.4304 6.7271 26.4304 6.21324V0.999366C26.4684 0.486911 26.0838 0.0406536 25.5715 0.00257087Z" fill="white"/>
<path d="M16.6567 8.33475L14.0497 3.81595C13.7928 3.37416 13.2263 3.22426 12.7845 3.48113C12.3428 3.73799 12.1929 4.30451 12.4497 4.74629L15.0567 9.26509C15.3136 9.70688 15.8801 9.85678 16.3219 9.59992C16.7637 9.34292 16.9136 8.77654 16.6567 8.33475Z" fill="white"/>
<path d="M25.6378 17.2446C25.592 17.2411 25.546 17.2411 25.5001 17.2446C20.9406 17.2446 17.2446 20.9406 17.2446 25.5001C17.2446 26.0139 17.661 26.4304 18.1749 26.4304C18.6867 26.4276 19.1001 26.0119 19.1001 25.5001C19.0973 21.9684 21.9581 19.1029 25.4899 19.1001C25.4933 19.1001 25.4966 19.1001 25.5001 19.1001C26.0125 19.1382 26.4587 18.7537 26.4967 18.2412C26.5348 17.7288 26.1503 17.2825 25.6378 17.2446Z" fill="white"/>
<path d="M50.8595 25.4285C50.8254 24.9691 50.4602 24.6037 50.0006 24.5696H44.7815C44.269 24.5315 43.8229 24.916 43.7848 25.4285C43.7467 25.9409 44.1313 26.3871 44.6437 26.4252C44.6896 26.4286 44.7357 26.4286 44.7816 26.4252H50.0007C50.5131 26.3872 50.8976 25.9409 50.8595 25.4285Z" fill="white"/>
<path d="M6.35623 24.5748C6.31035 24.5714 6.26435 24.5714 6.21847 24.5748H0.999354C0.486899 24.6129 0.102367 25.0592 0.140449 25.5715C0.17457 26.0309 0.539806 26.3963 0.999354 26.4304H6.21847C6.73092 26.4685 7.17705 26.0839 7.21514 25.5715C7.25322 25.059 6.86869 24.6128 6.35623 24.5748Z" fill="white"/>
<path d="M25.5038 11.8465C17.9632 11.8455 11.8495 17.9575 11.8483 25.4981C11.8478 29.1207 13.287 32.5951 15.8489 35.1562C18.406 37.7196 21.8793 39.1582 25.4999 39.1536C33.0406 39.1546 39.1544 33.0426 39.1554 25.502C39.1564 17.9614 33.0444 11.8475 25.5038 11.8465ZM33.8424 33.8578C29.235 38.4652 21.7649 38.4652 17.1575 33.8578C14.9412 31.6415 13.6979 28.6343 13.702 25.5001C13.6975 22.3701 14.9412 19.3676 17.1575 17.1577V17.173C21.7649 12.5656 29.235 12.5656 33.8424 17.173C38.4498 21.7804 38.4498 29.2504 33.8424 33.8578Z" fill="white"/>
<path d="M38.5527 46.2579C38.5519 46.2565 38.5512 46.2551 38.5503 46.2539L35.9382 41.735C35.6813 41.2933 35.1148 41.1434 34.673 41.4002C34.2312 41.6571 34.0813 42.2236 34.3382 42.6654L36.9503 47.1842C37.2061 47.6255 37.771 47.7764 38.2129 47.5216C38.6557 47.2664 38.8079 46.7006 38.5527 46.2579Z" fill="white"/>
<path d="M38.2462 3.48113C37.8045 3.22426 37.238 3.37416 36.9811 3.81595L34.369 8.33475C34.1103 8.77552 34.258 9.34241 34.6987 9.60094C34.6996 9.60145 34.7003 9.60196 34.7012 9.60247C35.1426 9.85985 35.7092 9.71071 35.9665 9.26918C35.9673 9.26778 35.9682 9.26637 35.969 9.26509L38.5811 4.74629C38.8379 4.30438 38.688 3.73799 38.2462 3.48113Z" fill="white"/>
<path d="M16.327 41.4002C15.8852 41.1434 15.3187 41.2933 15.0618 41.735L12.4497 46.2539C12.1929 46.6956 12.3428 47.2622 12.7845 47.519C13.2263 47.7759 13.7928 47.626 14.0497 47.1842L16.6618 42.6654C16.9187 42.2235 16.7688 41.6571 16.327 41.4002Z" fill="white"/>
<path d="M9.59992 34.6731C9.34305 34.2313 8.77654 34.0814 8.33475 34.3383L3.81595 36.9504C3.37416 37.2073 3.22426 37.7738 3.48113 38.2156C3.73799 38.6574 4.30451 38.8073 4.74629 38.5504L9.26509 35.9383C9.70688 35.6813 9.85678 35.1149 9.59992 34.6731Z" fill="white"/>
</g>
<defs>
<clipPath id="clip0">
<rect width="51" height="51" fill="white"/>
</clipPath>
</defs>
</svg>
