<svg width="63" height="63" viewBox="0 0 63 63" fill="none" xmlns="http://www.w3.org/2000/svg">
<path d="M63 31.5C63 14.1315 48.8685 0 31.5 0C14.1315 0 0 14.1315 0 31.5C0 40.6739 3.94495 48.943 10.2243 54.7046L10.1945 54.731L11.2163 55.5923C11.2827 55.6485 11.3549 55.6943 11.4213 55.7493C11.9643 56.1994 12.5267 56.6267 13.0994 57.0402C13.285 57.1742 13.4705 57.3082 13.6595 57.4388C14.2712 57.8603 14.8989 58.2601 15.5404 58.6393C15.6801 58.7217 15.821 58.8019 15.9619 58.8821C16.6641 59.2819 17.3811 59.6587 18.1154 60.0046C18.1692 60.0298 18.2242 60.0527 18.278 60.0779C20.6709 61.1902 23.2252 62.0069 25.8964 62.4891C25.9663 62.5017 26.0362 62.5143 26.1072 62.5269C26.9365 62.6701 27.775 62.7847 28.6238 62.8614C28.7269 62.8706 28.8299 62.8763 28.9342 62.8855C29.7795 62.9553 30.634 63 31.5 63C32.3579 63 33.2044 62.9553 34.0452 62.8877C34.1517 62.8786 34.2583 62.8729 34.3648 62.8637C35.2067 62.7869 36.0383 62.6758 36.8596 62.5349C36.9306 62.5223 37.0028 62.5097 37.0738 62.496C39.7049 62.0241 42.2226 61.2257 44.5845 60.1421C44.6716 60.102 44.7598 60.0642 44.8468 60.023C45.5536 59.6908 46.2443 59.3323 46.9213 58.9508C47.0896 58.8557 47.2569 58.7595 47.4241 58.661C48.0404 58.2979 48.6463 57.9188 49.2351 57.5156C49.447 57.3712 49.6543 57.2189 49.8639 57.0677C50.3668 56.7057 50.8605 56.3323 51.3404 55.9417C51.4469 55.8558 51.5615 55.7813 51.6657 55.6931L52.7138 54.818L52.6829 54.7917C59.0173 49.0277 63 40.7209 63 31.5ZM2.29091 31.5C2.29091 15.3938 15.3938 2.29091 31.5 2.29091C47.6062 2.29091 60.7091 15.3938 60.7091 31.5C60.7091 40.1791 56.9005 47.9819 50.8708 53.3358C50.534 53.1033 50.195 52.8948 49.8479 52.7207L40.1493 47.872C39.2788 47.4367 38.7381 46.5616 38.7381 45.5891V42.202C38.9626 41.9248 39.1997 41.6109 39.4449 41.2661C40.7003 39.493 41.7071 37.5205 42.4414 35.398C43.8927 34.7084 44.8297 33.2629 44.8297 31.6306V27.5699C44.8297 26.5768 44.4654 25.6135 43.8136 24.8564V19.5105C43.8732 18.916 44.084 15.561 41.6567 12.7936C39.5457 10.3835 36.1288 9.16364 31.5 9.16364C26.8712 9.16364 23.4543 10.3835 21.3433 12.7924C18.916 15.5599 19.1268 18.9149 19.1864 19.5094V24.8552C18.5357 25.6124 18.1703 26.5757 18.1703 27.5688V31.6294C18.1703 32.8906 18.7362 34.067 19.7053 34.8608C20.6331 38.4953 22.5425 41.2467 23.2481 42.1791V45.494C23.2481 46.4287 22.7384 47.2878 21.9171 47.7368L12.86 52.6772C12.5714 52.8341 12.285 53.0174 11.9986 53.2224C6.04342 47.8708 2.29091 40.1161 2.29091 31.5ZM48.6349 55.133C48.2339 55.424 47.8262 55.7057 47.4127 55.9749C47.2225 56.0986 47.0335 56.2223 46.8399 56.3426C46.2993 56.6771 45.7495 56.9955 45.1882 57.2933C45.0645 57.3586 44.9396 57.4205 44.8148 57.4846C43.525 58.1456 42.1905 58.7137 40.8194 59.1753C40.7713 59.1914 40.7232 59.2085 40.6739 59.2246C39.9557 59.4628 39.2284 59.6747 38.493 59.8569C38.4907 59.8569 38.4884 59.858 38.4861 59.858C37.7439 60.0413 36.9925 60.1936 36.2365 60.3185C36.2158 60.3219 36.1952 60.3265 36.1746 60.3299C35.4633 60.4456 34.7462 60.5293 34.0269 60.5923C33.8997 60.6037 33.7726 60.6117 33.6443 60.6209C32.933 60.6747 32.2182 60.7091 31.5 60.7091C30.7738 60.7091 30.0499 60.6736 29.3294 60.6197C29.2045 60.6106 29.0797 60.6026 28.9559 60.5911C28.2297 60.527 27.5069 60.4411 26.791 60.3242C26.759 60.3185 26.7269 60.3128 26.6948 60.307C25.1805 60.0539 23.6903 59.6816 22.239 59.1948C22.1943 59.1799 22.1485 59.1639 22.1038 59.149C21.3833 58.9039 20.6709 58.6324 19.971 58.3323C19.9664 58.33 19.9607 58.3277 19.9561 58.3254C19.294 58.0402 18.6446 57.724 18.0031 57.3907C17.9195 57.3472 17.8347 57.3059 17.7523 57.2613C17.1669 56.9486 16.5942 56.6107 16.0295 56.2579C15.8623 56.1525 15.6962 56.0459 15.5312 55.9383C15.0112 55.5981 14.498 55.2441 13.9986 54.8696C13.9471 54.8306 13.8978 54.7894 13.8463 54.7504C13.8829 54.7298 13.9196 54.7092 13.9562 54.6886L23.0133 49.7482C24.5711 48.8983 25.5391 47.2683 25.5391 45.494L25.5379 41.3681L25.2745 41.0497C25.2493 41.021 22.7728 38.0085 21.8369 33.9295L21.7327 33.4759L21.3421 33.2228C20.7911 32.8665 20.4613 32.2709 20.4613 31.6283V27.5677C20.4613 27.035 20.6869 26.539 21.0993 26.1668L21.4773 25.8254V19.4452L21.467 19.2952C21.4635 19.2677 21.1256 16.5129 23.066 14.301C24.7223 12.4133 27.5608 11.4545 31.5 11.4545C35.4243 11.4545 38.2536 12.4053 39.9145 14.2792C41.8526 16.4682 41.5353 19.2746 41.533 19.2975L41.5227 25.8277L41.9007 26.1691C42.3119 26.5402 42.5387 27.0373 42.5387 27.5699V31.6306C42.5387 32.4473 41.9832 33.1884 41.186 33.4347L40.6167 33.6099L40.4334 34.1769C39.7576 36.2765 38.7954 38.2158 37.5743 39.9409C37.2742 40.3647 36.9821 40.7404 36.7313 41.0279L36.4472 41.3521V45.5891C36.4472 47.4356 37.4735 49.0965 39.1253 49.9212L48.8239 54.7699C48.8857 54.8008 48.9464 54.8329 49.0071 54.865C48.8846 54.9578 48.7586 55.0437 48.6349 55.133Z" fill="white"/>
</svg>
